<svg xmlns="http://www.w3.org/2000/svg" viewBox="0 0 96 96" width="96" height="96">
  <defs>
    <linearGradient id="bg" x1="0" y1="0" x2="1" y2="1">
      <stop offset="0%" stop-color="#1f6feb"/>
      <stop offset="100%" stop-color="#7c3aed"/>
    </linearGradient>
  </defs>
  <rect x="2" y="2" width="92" height="92" rx="20" fill="url(#bg)"/>
  <g fill="none" stroke="#ffffff" stroke-width="4" stroke-linecap="round">
    <line x1="34" y1="20" x2="34" y2="30"/>
    <line x1="48" y1="20" x2="48" y2="30"/>
    <line x1="62" y1="20" x2="62" y2="30"/>
    <line x1="34" y1="66" x2="34" y2="76"/>
    <line x1="48" y1="66" x2="48" y2="76"/>
    <line x1="62" y1="66" x2="62" y2="76"/>
    <line x1="20" y1="34" x2="30" y2="34"/>
    <line x1="20" y1="48" x2="30" y2="48"/>
    <line x1="20" y1="62" x2="30" y2="62"/>
    <line x1="66" y1="34" x2="76" y2="34"/>
    <line x1="66" y1="48" x2="76" y2="48"/>
    <line x1="66" y1="62" x2="76" y2="62"/>
  </g>
  <rect x="28" y="28" width="40" height="40" rx="6" fill="none" stroke="#ffffff" stroke-width="4"/>
  <path d="M51 36 L41 50 L48 50 L45 60 L55 46 L48 46 Z" fill="#ffd33d"/>
</svg>
